<svg xml:space="preserve" width="128" height="128" xmlns="http://www.w3.org/2000/svg"><path style="fill:#d5ffd5;fill-opacity:1;fill-rule:evenodd;stroke:none;stroke-width:2.5;stroke-linecap:round;stroke-opacity:1;paint-order:markers fill stroke;stop-color:#000" d="M0 0h128v128H0z"/><path d="M51.477 4.734c-.756 0-1.36.609-1.36 1.364v86.997c0 .756.604 1.365 1.36 1.365h59.051c.756 0 1.36-.609 1.36-1.365V27.943L88.68 4.733H51.478" fill="#49a026"/><path d="m111.889 27.943-23.21-23.21v21.845c0 .756.606 1.365 1.361 1.365h21.849" fill="#fff" fill-opacity=".196"/><path style="fill:#000;stroke-width:.416687" d="M17.193 32.914 14 45l11.114 2.936v63.246h69.791l3.4-12.084h-60.69v-9.593h63.337L114 47.02H37.615v-8.71z"/><path style="fill:#d5d5ff;fill-opacity:1;stroke-width:1.24383" d="M56.366 34.52v12.502h12.501V34.52Zm18.752 0v12.502H87.62V34.52Zm18.751 0v12.502h12.501V34.52ZM37.615 53.273v12.5h12.501v-12.5Zm18.751 0v12.5h12.501v-12.5Zm18.752 0v12.5H87.62v-12.5Zm18.751 0v12.5h12.501v-12.5ZM37.615 72.024v12.5h12.501v-12.5Zm18.751 0v12.5h12.501v-12.5Zm18.752 0v12.5H87.62v-12.5Zm18.751 0v12.5h5.501l3-12.5z"/><path style="fill:#000;stroke-width:.416687" d="M107.75 47.022 94.702 89.505h6.25L114 47.022z"/><circle style="fill:#000;fill-rule:evenodd;stroke:none;stroke-width:5.035;stroke-linecap:round;stroke-opacity:1;paint-order:markers fill stroke;stop-color:#000" cx="42.209" cy="111.182" r="12.084"/><circle style="fill:#000;fill-rule:evenodd;stroke:none;stroke-width:5.035;stroke-linecap:round;stroke-opacity:1;paint-order:markers fill stroke;stop-color:#000" cx="78.67" cy="111.182" r="12.084"/></svg>